<?xml version="1.0" encoding="UTF-8"?><svg id="Layer_2" xmlns="http://www.w3.org/2000/svg" viewBox="0 0 59.7 12.7"><g id="Layer_1-2"><g isolation="isolate" opacity=".9"><path d="M0,0h3.1v5.4h.2L7.4,0h3.6l-4.5,5.7,4.6,7h-3.7l-3.2-5-1.2,1.5v3.4H0V0Z" fill="#fff" stroke-width="0"/><path d="M25.7,0h5.2c2.8,0,4.6,1.8,4.6,4.4s-1.8,4.4-4.7,4.4h-2.1v3.9h-3.1V0ZM30.3,6.3c1.4,0,2.1-.8,2.1-1.9s-.7-1.9-2.1-1.9h-1.5v3.9h1.5Z" fill="#fff" stroke-width="0"/><path d="M36.7,0h10.7v2.5h-3.8v10.2h-3V2.5h-3.9V0Z" fill="#fff" stroke-width="0"/><path d="M59.7,12.7h-2.6l-5-7.3h0v7.3h-3.1V0h2.6l5,7.3h.1V0h3.1v12.7Z" fill="#fff" stroke-width="0"/><polygon points="15.4 11.3 15.4 11.3 18 3 20.2 10 20.2 10 16.1 9.3 21.5 12.7 21.5 12.7 24.3 12.7 20.1 0 16 0 11.7 12.7 15 12.7 15.3 11.7 15.3 11.7 15.4 11.3" fill="#fff" stroke-width="0"/></g></g></svg>