<?xml version="1.0" encoding="UTF-8"?><svg id="Layer_2" xmlns="http://www.w3.org/2000/svg" viewBox="0 0 52.5 8.7"><g id="Layer_9"><path d="M14.6,0h1.8v3.8h.1l3.1-3.8h2.2l-3.2,3.9,3.3,4.8h-2.2l-2.4-3.6-.9,1.1v2.5h-1.8V0Z" fill="#fff" stroke-width="0"/><path d="M21.8,8.7L24.8,0h2.4l3,8.7h-2l-.6-2h-3.1l-.6,2h-2ZM27.1,5.3l-1.1-3.3h0l-1.1,3.3h2.2Z" fill="#fff" stroke-width="0"/><path d="M30.6,0h3.4c2,0,3.1,1.2,3.1,3s-1.2,2.9-3.2,2.9h-1.5v2.8h-1.8V0ZM33.7,4.4c1.1,0,1.6-.6,1.6-1.5s-.5-1.4-1.6-1.4h-1.2v2.9h1.3Z" fill="#fff" stroke-width="0"/><path d="M37.5,0h7.2v1.5h-2.7v7.2h-1.8V1.5h-2.7V0Z" fill="#fff" stroke-width="0"/><path d="M52.5,8.7h-1.6l-3.8-5.5h0v5.5h-1.8V0h1.6l3.8,5.5h0V0h1.8v8.7Z" fill="#fff" stroke-width="0"/><path d="M0,4.3L4.2,0l4.2,4.3-4.2,4.3L0,4.3Z" fill="#e0b84a" isolation="isolate" stroke-width="0"/><path d="M7.6,4.3L11.8,0l4.2,4.3-4.2,4.3-4.2-4.3Z" fill="#e0b84a" isolation="isolate" stroke-width="0"/><rect x="7.7" y="-1.4" width=".7" height="11.5" transform="translate(5.4 -4.4) rotate(45)" fill="#fff" stroke-width="0"/></g></svg>