<?xml version="1.0" encoding="UTF-8"?><svg id="Layer_2" xmlns="http://www.w3.org/2000/svg" viewBox="0 0 65.3 13.9"><g id="Layer_1-2"><g isolation="isolate"><path d="M0,0h3.4v5.9h.2L8.1,0h4l-4.9,6.2,5,7.7h-4l-3.5-5.5-1.3,1.7v3.8H0V0Z" fill="gold" stroke-width="0"/><path d="M28.1,0h5.7c3.1,0,5.1,2,5.1,4.8s-2,4.8-5.2,4.8h-2.3v4.3h-3.4V0ZM33.1,6.9c1.5,0,2.3-.8,2.3-2.1s-.8-2.1-2.3-2.1h-1.7v4.2h1.7Z" fill="gold" stroke-width="0"/><path d="M40.1,0h11.7v2.7h-4.2v11.2h-3.3V2.7h-4.2V0Z" fill="gold" stroke-width="0"/><path d="M65.3,13.9h-2.8l-5.5-8h0v8h-3.4V0h2.9l5.5,8h.1V0h3.3v13.9Z" fill="gold" stroke-width="0"/><polygon points="16.9 12.4 16.9 12.4 19.7 3.3 22.1 10.9 22.1 10.9 17.6 10.1 23.5 13.9 23.5 13.9 26.6 13.9 21.9 0 17.5 0 12.8 13.9 16.4 13.9 16.7 12.8 16.7 12.8 16.9 12.4" fill="gold" stroke-width="0"/></g></g></svg>