<?xml version="1.0" encoding="UTF-8"?><svg id="Layer_2" xmlns="http://www.w3.org/2000/svg" viewBox="0 0 49.3 14.2"><g id="Layer_9"><path d="M14.9,1.6h1.1v4.3h.1l3.9-4.3h1.4l-3.7,3.9,3.7,4.8h-1.3l-3-4.1-1.1,1.2v2.8h-1.1V1.6Z" fill="#fff" stroke-width="0"/><path d="M20.8,10.4l3.2-8.7h1.1l3.2,8.7h-1.1l-.9-2.5h-3.5l-.9,2.5h-1.1ZM25.9,7l-1.4-3.9h0l-1.4,3.9h2.9Z" fill="#fff" stroke-width="0"/><path d="M28.4,1.6h2.9c2,0,3,1.2,3,2.8s-.9,2.8-2.9,2.8h-1.9v3.2h-1.1V1.6ZM31.3,6.2c1.4,0,1.9-.8,1.9-1.8s-.5-1.8-2-1.8h-1.9v3.7h1.9Z" fill="#fff" stroke-width="0"/><path d="M34.4,1.6h6.5v.9h-2.7v7.8h-1.1V2.6h-2.7v-.9Z" fill="#fff" stroke-width="0"/><path d="M48.3,10.4h-1l-4.8-6.8h0v6.8h-1.1V1.6h1l4.8,6.9h0V1.6h1v8.7Z" fill="#fff" stroke-width="0"/><path d="M0,6L4.2,1.7l4.2,4.3-4.2,4.3L0,6Z" fill="gold" isolation="isolate" stroke-width="0"/><path d="M7.6,6L11.8,1.7l4.2,4.3-4.2,4.3-4.2-4.3Z" fill="gold" isolation="isolate" stroke-width="0"/><rect x="7.7" y=".2" width=".7" height="11.5" transform="translate(6.6 -3.9) rotate(45)" fill="#fff" stroke-width="0"/></g></svg>