<?xml version="1.0" encoding="UTF-8"?><svg id="Layer_2" xmlns="http://www.w3.org/2000/svg" viewBox="0 0 46.2 7.9"><g id="Layer_2-2"><path d="M0,.3h1.6v3.3h0L4.3.3h1.9l-2.8,3.3,2.8,4.1h-1.9l-2-3.1-.8.9v2.1H0V.3Z" fill="#fff" stroke-width="0"/><path d="M6.6,7.8L9.2.3h2l2.6,7.4h-1.7l-.6-1.7h-2.7l-.6,1.7h-1.7ZM11.2,4.8l-.9-2.8h0l-.9,2.8h1.9Z" fill="#fff" stroke-width="0"/><path d="M14.7.3h2.9c1.7,0,2.7,1,2.7,2.5s-1,2.5-2.7,2.5h-1.3v2.4h-1.6V.3ZM17.3,4.1c.9,0,1.3-.5,1.3-1.2s-.4-1.2-1.3-1.2h-1.1v2.5h1.1Z" fill="#fff" stroke-width="0"/><path d="M21,.3h6.1v1.3h-2.3v6.1h-1.6V1.6h-2.3V.3Z" fill="#fff" stroke-width="0"/><path d="M34.3,7.8h-1.4l-3.2-4.7h0v4.7h-1.6V.3h1.4l3.2,4.7h0V.3h1.6v7.4Z" fill="#fff" stroke-width="0"/><path d="M44.4.9c0-.5.4-.9.9-.9s.9.4.9.9c0,.5-.4.9-.9.9s-.9-.4-.9-.9Z" fill="#fff" stroke-width="0"/><path d="M38.4,6.2c0-1.2,1-1.6,2.1-1.7,1,0,1.4-.1,1.4-.5h0c0-.5-.3-.7-.8-.7s-.9.3-1,.6h-1.4c.2-1.1,1.1-1.8,2.4-1.8s2.4.6,2.4,1.9v3.8h-1.5v-.8h0c-.3.5-.8.9-1.6.9s-1.9-.6-1.9-1.7ZM41.8,5.8v-.6c-.2.1-.7.2-1.1.3-.5,0-.9.3-.9.7s.3.6.8.6c.7,0,1.2-.4,1.2-1Z" fill="#fff" stroke-width="0"/><path d="M44.5,2.2h1.5v5.6h-1.5V2.2Z" fill="#fff" stroke-width="0"/><path d="M32.8,4.2l1.5-1.6,1.5,1.6-1.5,1.6-1.5-1.6Z" fill="gold" isolation="isolate" stroke-width="0"/><path d="M35.6,4.2l1.5-1.6,1.5,1.6-1.5,1.6-1.5-1.6Z" fill="gold" isolation="isolate" stroke-width="0"/><rect x="35.6" y="2.2" width=".2" height="4.2" transform="translate(13.5 -24) rotate(45)" fill="#fff" stroke-width="0"/></g></svg>